<svg width="36" height="38" fill="none" xmlns="http://www.w3.org/2000/svg"><path d="M25.35 9.276c-2.187-.047-4.222.883-5.917 2.395-.288-1.97-1.064-3.551-1.064-3.551C27.546 6.886 24.98.014 24.98.014c-6.474-.273-7.73 3.577-7.864 6.104-1.996-2.12-4.248-3.332-5.19-3.755-.895-.403-1.948.061-2.321.963-.373.904.078 1.898.971 2.305 1.18.54 4.887 1.871 6.009 6.158-1.722-1.585-3.806-2.513-6.05-2.513-5.913 0-11.378 4.858-9.47 14.363 1.56 7.777 7.26 14.36 13.173 14.36 1.54 0 2.753-.437 3.704-1.225.952.786 2.164 1.233 3.705 1.226 6.114-.038 11.33-6.238 13.173-14.361 1.865-8.22-2.453-14.212-9.47-14.363z" fill="#222"/></svg>7 8.32548 37.9999 14.2377 37.9999C15.7789 37.9999 16.9913 37.5619 17.9418 36.774C18.894 37.5602 20.1056 38.0074 21.6468 37.9999C27.7606 37.9625 32.9776 31.7622 34.82 23.6387C36.685 15.4188 32.3668 9.42716 25.3509 9.27589Z" fill="#222222"/>
</svg>
