<svg width="17" height="16" viewBox="0 0 17 16" fill="none" xmlns="http://www.w3.org/2000/svg">
<path d="M6.96484 14.5514C6.61328 14.1998 6.64844 13.6725 6.96484 13.3209L11.2188 9.27795H1.09375C0.636719 9.27795 0.25 8.92639 0.25 8.4342V7.3092C0.25 6.85217 0.636719 6.46545 1.09375 6.46545H11.2188L6.96484 2.45764C6.64844 2.10608 6.61328 1.57874 6.96484 1.22717L7.73828 0.453735C8.05469 0.137329 8.61719 0.137329 8.93359 0.453735L15.7539 7.3092C16.1055 7.62561 16.1055 8.15295 15.7539 8.46936L8.93359 15.3248C8.61719 15.6412 8.08984 15.6412 7.73828 15.3248L6.96484 14.5514Z" fill="#222222"/>
</svg>
