<svg width="42" height="42" viewBox="0 0 42 42" fill="none" xmlns="http://www.w3.org/2000/svg">
<path d="M40.9394 22.0498C40.6533 21.9537 39.8844 21.6454 39.6732 21.3451C39.6396 21.2974 39.5874 21.1947 39.5212 21.0647C39.1326 20.3005 38.2223 18.511 36.384 18.511C36.095 18.511 35.792 18.5563 35.4832 18.6458C33.7551 19.1466 32.9258 20.2854 32.3204 21.1168C31.9717 21.5956 31.6963 21.9738 31.386 22.033C31.2884 22.0516 31.1969 22.061 31.1139 22.061C30.8179 22.061 30.6521 21.9492 30.6211 21.7288C30.5046 20.9008 30.5312 19.8683 30.5594 18.7751C30.606 16.9667 30.6587 14.9171 30.0534 13.309C29.0667 10.6871 26.8638 8.5749 25.0936 6.87779C24.6513 6.45366 24.2335 6.05308 23.8753 5.68482C23.7377 5.51603 23.5947 5.36247 23.4564 5.21384C23.2555 4.9982 23.0658 4.79451 22.9274 4.58004C22.3333 3.6601 21.9172 2.61646 21.5575 1.63069C21.5235 1.52282 21.4896 1.414 21.4561 1.30413C21.4024 1.12809 21.3432 0.993854 21.2754 0.894292C21.0795 0.428347 20.8487 0 20.4926 0C20.4371 0 20.38 0.010776 20.3233 0.0320938C19.711 0.262138 19.5765 1.52352 19.4578 2.63649C19.3968 3.20809 19.3393 3.74806 19.2272 4.01336C19.0824 4.35597 18.8578 4.55861 18.6201 4.77296C18.339 5.02654 18.0483 5.28868 17.9123 5.78321C17.7762 6.27727 17.9125 6.56166 18.0445 6.83656C18.1554 7.06813 18.2604 7.2867 18.2033 7.65121C18.1435 8.03376 17.9578 8.24037 17.7612 8.45929C17.5517 8.69262 17.3348 8.9339 17.2979 9.37537C17.2597 9.83124 17.5011 10.1272 17.7346 10.4136C17.9387 10.6639 18.1315 10.9004 18.1268 11.2368C18.1227 11.5223 17.9525 11.6643 17.737 11.8442C17.4548 12.0798 17.1035 12.373 17.2187 13.0786C17.2949 13.5448 17.6047 13.7882 17.8782 14.0029C18.1411 14.2094 18.3019 14.3479 18.2902 14.5835C18.2813 14.7626 18.2258 14.954 18.1671 15.1565C18.0268 15.64 17.8677 16.188 18.2793 16.7887C18.4277 17.0051 18.9215 17.4391 19.4701 17.8834C17.964 17.1982 15.7273 16.3333 13.3883 15.9687C9.55161 15.3707 5.83075 13.8924 3.83171 13.0981C2.89073 12.7243 2.46753 12.5589 2.30068 12.5589C2.19255 12.5589 2.15694 12.6248 2.14656 12.6533C2.10682 12.7626 2.20222 12.8654 2.43121 13.0543L3.04721 13.5621C3.87345 14.2426 4.52188 14.7766 4.79745 15.0453C4.66279 14.9978 4.46999 14.9197 4.22013 14.812C4.08818 14.7551 3.98217 14.7776 3.92357 14.8625C3.89538 14.9034 3.88171 14.955 3.88171 15.0202C3.88171 15.7446 5.98168 19.3066 8.88267 22.7436C10.9764 25.224 14.9989 29.3851 18.4152 29.3851C18.6191 29.3851 18.8196 29.3703 19.0148 29.3408C17.6563 30.737 12.718 34.4159 8.33967 36.2211C3.04898 38.4026 0.660573 39.5235 0.493485 40.3992C0.455516 40.5982 0.524851 40.7842 0.699604 40.9519C0.932254 41.1752 1.14934 41.2791 1.38293 41.2791C1.54778 41.2791 1.69907 41.2267 1.84528 41.1761C1.99504 41.1243 2.14986 41.0707 2.32509 41.0707C2.52083 41.0707 2.72412 41.1387 2.94639 41.2786C3.50119 41.6275 4.16742 42 5.05663 42C5.98298 42 7.00508 41.5974 8.18142 40.7693C8.40181 40.6142 8.60168 40.545 8.82985 40.545C8.95861 40.545 9.0849 40.5663 9.21838 40.5888C9.36389 40.6133 9.51447 40.6387 9.68097 40.6387C10.0596 40.6387 10.42 40.4987 10.8146 40.1982C13.7268 37.9809 16.9025 37.5658 20.2649 37.1262C24.2312 36.6077 28.3325 36.0715 32.743 32.7021C36.4967 29.8346 37.2374 27.3723 37.7277 25.7427C37.7794 25.5711 37.8279 25.4094 37.877 25.2584C38.3681 23.7462 38.6561 23.393 39.0157 23.2701C39.2543 23.1886 39.8448 22.9516 40.3659 22.7427C40.7325 22.5957 41.0492 22.4686 41.1369 22.4386C41.2663 22.3944 41.2816 22.3157 41.2792 22.2726C41.2766 22.2286 41.271 22.1256 40.9394 22.0498Z" fill="#222222"/>
</svg>
