<svg width="11" height="13" viewBox="0 0 11 13" fill="none" xmlns="http://www.w3.org/2000/svg">
<path d="M10.5 8.9375V1.0625C10.5 0.757812 10.2422 0.5 9.9375 0.5H2.25C1.00781 0.5 0 1.50781 0 2.75V10.25C0 11.4922 1.00781 12.5 2.25 12.5H9.9375C10.2422 12.5 10.5 12.2656 10.5 11.9375V11.5625C10.5 11.3984 10.4062 11.2344 10.2891 11.1406C10.1719 10.7656 10.1719 9.73438 10.2891 9.38281C10.4062 9.28906 10.5 9.125 10.5 8.9375ZM3 3.64062C3 3.57031 3.04688 3.5 3.14062 3.5H8.10938C8.17969 3.5 8.25 3.57031 8.25 3.64062V4.10938C8.25 4.20312 8.17969 4.25 8.10938 4.25H3.14062C3.04688 4.25 3 4.20312 3 4.10938V3.64062ZM3 5.14062C3 5.07031 3.04688 5 3.14062 5H8.10938C8.17969 5 8.25 5.07031 8.25 5.14062V5.60938C8.25 5.70312 8.17969 5.75 8.10938 5.75H3.14062C3.04688 5.75 3 5.70312 3 5.60938V5.14062ZM8.92969 11H2.25C1.82812 11 1.5 10.6719 1.5 10.25C1.5 9.85156 1.82812 9.5 2.25 9.5H8.92969C8.88281 9.92188 8.88281 10.6016 8.92969 11Z" fill="white"/>
</svg>
