<svg width="11" height="12" viewBox="0 0 11 12" fill="none" xmlns="http://www.w3.org/2000/svg">
<path d="M5.5 0.546875C2.55664 0.546875 0.171875 2.93164 0.171875 5.875C0.171875 8.81836 2.55664 11.2031 5.5 11.2031C8.44336 11.2031 10.8281 8.81836 10.8281 5.875C10.8281 2.93164 8.44336 0.546875 5.5 0.546875ZM7.21875 4.15625C7.58398 4.15625 7.90625 4.47852 7.90625 4.84375C7.90625 5.23047 7.58398 5.53125 7.21875 5.53125C6.83203 5.53125 6.53125 5.23047 6.53125 4.84375C6.53125 4.47852 6.83203 4.15625 7.21875 4.15625ZM3.78125 4.15625C4.14648 4.15625 4.46875 4.47852 4.46875 4.84375C4.46875 5.23047 4.14648 5.53125 3.78125 5.53125C3.39453 5.53125 3.09375 5.23047 3.09375 4.84375C3.09375 4.47852 3.39453 4.15625 3.78125 4.15625ZM7.94922 7.83008C7.34766 8.56055 6.44531 8.96875 5.5 8.96875C4.5332 8.96875 3.63086 8.56055 3.0293 7.83008C2.72852 7.46484 3.26562 7.03516 3.54492 7.37891C4.03906 7.95898 4.74805 8.28125 5.5 8.28125C6.25195 8.28125 6.93945 7.95898 7.43359 7.37891C7.71289 7.03516 8.25 7.46484 7.94922 7.83008Z" fill="white"/>
</svg>
