<svg width="14" height="9" viewBox="0 0 14 9" fill="none" xmlns="http://www.w3.org/2000/svg">
<path d="M13.0625 0.75H0.6875C0.300781 0.75 0 1.07227 0 1.4375V8.3125C0 8.69922 0.300781 9 0.6875 9H13.0625C13.4277 9 13.75 8.69922 13.75 8.3125V1.4375C13.75 1.07227 13.4277 0.75 13.0625 0.75ZM1.03125 7.96875V6.59375C1.7832 6.59375 2.40625 7.2168 2.40625 7.96875H1.03125ZM1.03125 3.15625V1.78125H2.40625C2.40625 2.55469 1.7832 3.15625 1.03125 3.15625ZM6.875 6.9375C5.9082 6.9375 5.15625 6.03516 5.15625 4.875C5.15625 3.73633 5.9082 2.8125 6.875 2.8125C7.82031 2.8125 8.59375 3.73633 8.59375 4.875C8.59375 6.03516 7.82031 6.9375 6.875 6.9375ZM12.7188 7.96875H11.3438C11.3438 7.2168 11.9453 6.59375 12.7188 6.59375V7.96875ZM12.7188 3.15625C11.9453 3.15625 11.3438 2.55469 11.3438 1.78125H12.7188V3.15625Z" fill="white"/>
</svg>
