<svg width="10" height="12" viewBox="0 0 10 12" fill="none" xmlns="http://www.w3.org/2000/svg">
<path d="M9.625 8.08789V0.933594C9.625 0.589844 9.41016 0.375 9.06641 0.375H2.0625C0.880859 0.375 0 1.27734 0 2.4375V9.3125C0 10.4941 0.880859 11.375 2.0625 11.375H9.06641C9.3457 11.375 9.625 11.1816 9.625 10.8379V10.4941C9.625 10.3438 9.53906 10.2148 9.41016 10.0859C9.3457 9.74219 9.3457 8.77539 9.41016 8.49609C9.53906 8.43164 9.625 8.28125 9.625 8.08789ZM3.09375 3.46875C3.09375 3.29688 3.24414 3.125 3.4375 3.125H4.46875V2.09375C4.46875 1.92188 4.61914 1.75 4.8125 1.75H5.5C5.67188 1.75 5.84375 1.92188 5.84375 2.09375V3.125H6.875C7.04688 3.125 7.21875 3.29688 7.21875 3.46875V4.15625C7.21875 4.34961 7.04688 4.5 6.875 4.5H5.84375V6.90625C5.84375 7.09961 5.67188 7.25 5.5 7.25H4.8125C4.61914 7.25 4.46875 7.09961 4.46875 6.90625V4.5H3.4375C3.24414 4.5 3.09375 4.34961 3.09375 4.15625V3.46875ZM8.16406 10H2.0625C1.63281 10 1.375 9.74219 1.375 9.3125C1.375 8.9043 1.71875 8.625 2.0625 8.625H8.16406V10Z" fill="white"/>
</svg>
