<svg width="18" height="18" fill="none" xmlns="http://www.w3.org/2000/svg"><path fill-rule="evenodd" clip-rule="evenodd" d="M9 0c4.97 0 9 3.838 9 8.571 0 4.734-4.03 8.572-9 8.572S0 13.305 0 8.57C0 3.838 4.03 0 9 0zm0 1.714c-3.976 0-7.2 3.07-7.2 6.857 0 3.787 3.224 6.858 7.2 6.858s7.2-3.07 7.2-6.858c0-3.787-3.223-6.857-7.2-6.857zm2.964 3.68L7.2 9.93 6.036 8.822a.932.932 0 0 0-1.272 0 .829.829 0 0 0 0 1.213l1.8 1.714a.932.932 0 0 0 1.272 0l5.4-5.143a.829.829 0 0 0 0-1.212.932.932 0 0 0-1.272 0z" fill="#4F4F4F"/></svg>