<svg width="41" height="40" viewBox="0 0 41 40" fill="none" xmlns="http://www.w3.org/2000/svg">
<path d="M20.5569 0C9.45501 0 0.422852 8.97194 0.422852 19.9998C0.422852 31.0277 9.45501 39.9998 20.5569 39.9998C31.6588 39.9998 40.6913 31.0279 40.6913 19.9998C40.6913 8.97177 31.659 0 20.5569 0ZM20.5569 36.5579C11.3656 36.5579 3.88783 29.13 3.88783 19.9998C3.88783 10.8698 11.3656 3.44188 20.5569 3.44188C29.7484 3.44188 37.2262 10.8698 37.2262 19.9998C37.2262 29.1302 29.7484 36.5579 20.5569 36.5579Z" fill="#222222"/>
<path d="M20.5568 5.89267C12.726 5.89267 6.35498 12.2212 6.35498 19.9998C6.35498 27.7786 12.726 34.1071 20.5568 34.1071C28.3878 34.1071 34.7588 27.7786 34.7588 19.9998C34.7588 12.2212 28.388 5.89267 20.5568 5.89267ZM25.5573 17.3282L25.4411 17.624H21.9036V17.3067C21.9036 16.7179 21.7906 16.2835 21.5788 16.0154C21.3786 15.7627 21.1086 15.6449 20.7731 15.6449C20.4366 15.6449 20.2088 15.7372 20.0608 15.9273C19.8945 16.1413 19.817 16.4136 19.817 16.7604C19.817 17.1082 19.9037 17.3772 20.0795 17.5829C20.2709 17.807 20.6542 18.0456 21.2202 18.2933C22.6583 18.9031 23.736 19.526 24.4245 20.1438C25.1546 20.7992 25.5193 21.7375 25.5193 22.9326C25.5193 24.0695 25.1092 25.0007 24.3815 25.7004C23.7215 26.3355 22.8004 26.7346 21.7241 26.8891V29.0281H19.7508V26.8811C18.4951 26.7246 17.6694 26.2938 16.9037 25.601C16.0566 24.8362 15.629 23.7116 15.655 22.2608L15.6636 22.189L15.8152 21.9007H19.2127V22.2138C19.2127 22.8795 19.4059 23.3538 19.6751 23.6238C19.9474 23.8973 20.3376 24.0301 20.7818 24.0301C21.1323 24.0301 21.3909 23.9387 21.5576 23.751C21.7341 23.552 21.8227 23.2901 21.8227 22.951C21.8227 22.5495 21.7309 22.2418 21.5502 22.0363C21.3495 21.8081 20.9667 21.5727 20.419 21.3369C18.9585 20.7596 17.8608 20.157 17.1801 19.5497C16.459 18.9066 16.0771 17.9621 16.0771 16.742C16.0771 15.6349 16.398 14.7078 17.1539 13.9869C17.8415 13.3309 18.8536 12.9238 19.7505 12.7746V10.8529H21.9031V12.8251C22.8 13.0254 23.8594 13.4992 24.4946 14.2331C25.1837 15.0277 25.5622 16.0501 25.5428 17.2691L25.5573 17.3282Z" fill="#222222"/>
</svg>
