<svg width="27" height="23" fill="none" xmlns="http://www.w3.org/2000/svg"><path d="M18.163 12.022H.523a.523.523 0 1 1 0-1.044h17.64a.523.523 0 1 1 0 1.044z" fill="#000"/><path d="M14.962 16.198a.522.522 0 0 1-.37-.89l3.812-3.808-3.811-3.806a.522.522 0 1 1 .74-.738l4.18 4.176a.522.522 0 0 1 0 .738l-4.18 4.176a.525.525 0 0 1-.371.152z" fill="#000"/><path d="M15.485 22.984a11.514 11.514 0 0 1-10.843-7.656.522.522 0 1 1 .986-.347 10.467 10.467 0 0 0 9.857 6.959c5.764 0 10.453-4.684 10.453-10.44 0-5.756-4.69-10.44-10.453-10.44a10.464 10.464 0 0 0-9.856 6.96.522.522 0 1 1-.986-.348A11.511 11.511 0 0 1 15.484.017c6.34 0 11.5 5.152 11.5 11.484s-5.16 11.484-11.5 11.484z" fill="#000"/></svg>