<svg width="32" height="34" fill="none" xmlns="http://www.w3.org/2000/svg"><g clip-path="url(#clip0)" fill="#D9DEE6"><path d="M19.063 16.981c0 1.71-1.372 3.096-3.063 3.096s-3.063-1.386-3.063-3.096c0-1.71 1.372-3.095 3.063-3.095s3.063 1.386 3.063 3.095z"/><path d="M23.162 11.504a2.881 2.881 0 0 0-.687-1.067 2.842 2.842 0 0 0-1.056-.695c-.324-.127-.81-.278-1.706-.32-.97-.044-1.26-.054-3.713-.054-2.453 0-2.744.01-3.713.054-.895.042-1.382.193-1.706.32-.399.149-.76.386-1.056.695-.305.3-.54.664-.687 1.067-.126.328-.276.82-.317 1.725-.044.979-.053 1.273-.053 3.753 0 2.479.01 2.773.053 3.752.041.905.19 1.397.317 1.724.147.404.382.769.687 1.068.296.308.657.546 1.056.695.324.127.81.278 1.706.32.97.044 1.26.053 3.713.053 2.453 0 2.744-.009 3.712-.053.896-.042 1.383-.193 1.707-.32a3.06 3.06 0 0 0 1.743-1.763c.126-.327.276-.818.317-1.724.044-.98.053-1.273.053-3.753 0-2.48-.01-2.773-.053-3.752-.041-.905-.19-1.397-.317-1.725zM16 21.75c-2.606 0-4.718-2.135-4.718-4.769 0-2.634 2.112-4.768 4.718-4.768 2.605 0 4.718 2.135 4.718 4.768 0 2.634-2.113 4.769-4.718 4.769zm4.904-8.611a1.108 1.108 0 0 1-1.102-1.115c0-.615.493-1.114 1.102-1.114.61 0 1.103.499 1.103 1.114 0 .616-.494 1.115-1.103 1.115z"/><path d="M16 .81C7.165.81 0 8.05 0 16.98s7.165 16.173 16 16.173 16-7.242 16-16.173C32 8.051 24.835.81 16 .81zm9.132 20c-.044.989-.2 1.663-.427 2.254a4.723 4.723 0 0 1-2.687 2.716c-.584.23-1.252.387-2.23.432-.98.045-1.293.056-3.788.056s-2.808-.011-3.788-.056c-.978-.045-1.646-.202-2.23-.432a4.496 4.496 0 0 1-1.627-1.071 4.557 4.557 0 0 1-1.06-1.645c-.227-.59-.382-1.265-.427-2.254-.045-.99-.056-1.307-.056-3.829 0-2.522.011-2.838.056-3.828.044-.989.2-1.664.427-2.255.23-.62.592-1.18 1.06-1.644a4.496 4.496 0 0 1 1.627-1.071c.584-.23 1.252-.387 2.23-.432.98-.045 1.293-.056 3.788-.056s2.808.01 3.788.056c.978.045 1.646.202 2.23.431a4.5 4.5 0 0 1 1.627 1.072 4.54 4.54 0 0 1 1.06 1.645c.227.59.383 1.265.427 2.254.045.99.055 1.306.055 3.828s-.01 2.839-.055 3.829z"/></g><defs><clipPath id="clip0"><path fill="#fff" transform="translate(0 .81)" d="M0 0h32v32.344H0z"/></clipPath></defs></svg>