<svg width="32" height="33" fill="none" xmlns="http://www.w3.org/2000/svg"><g clip-path="url(#clip0)"><path d="M19.063 16.173c0 1.71-1.372 3.095-3.063 3.095s-3.063-1.386-3.063-3.095c0-1.71 1.372-3.096 3.063-3.096s3.063 1.386 3.063 3.096z" fill="#D9DEE6"/><path d="M19.063 16.173c0 1.71-1.372 3.095-3.063 3.095s-3.063-1.386-3.063-3.095c0-1.71 1.372-3.096 3.063-3.096s3.063 1.386 3.063 3.096z" fill="url(#paint0_linear)"/><path d="M23.162 10.696a2.881 2.881 0 0 0-.687-1.068 2.843 2.843 0 0 0-1.056-.695c-.324-.127-.81-.278-1.706-.32-.97-.044-1.26-.053-3.713-.053-2.453 0-2.744.009-3.713.054-.895.041-1.382.192-1.706.32-.399.148-.76.386-1.056.694-.305.3-.54.664-.687 1.068-.126.327-.276.819-.317 1.724-.044.98-.053 1.273-.053 3.753 0 2.48.01 2.773.053 3.753.041.905.19 1.397.317 1.724.147.403.382.768.687 1.067.296.309.657.546 1.056.695.324.127.81.279 1.706.32.97.045 1.26.054 3.713.054 2.453 0 2.744-.01 3.712-.054.896-.041 1.383-.193 1.707-.32a3.06 3.06 0 0 0 1.743-1.762c.126-.327.276-.82.317-1.724.044-.98.053-1.274.053-3.753 0-2.48-.01-2.774-.053-3.753-.041-.905-.19-1.397-.317-1.724zM16 20.94c-2.606 0-4.718-2.135-4.718-4.768 0-2.634 2.112-4.769 4.718-4.769 2.605 0 4.718 2.135 4.718 4.769 0 2.633-2.113 4.768-4.718 4.768zm4.904-8.611a1.109 1.109 0 0 1-1.102-1.114c0-.616.493-1.115 1.102-1.115.61 0 1.103.5 1.103 1.114 0 .616-.494 1.115-1.103 1.115z" fill="url(#paint1_linear)"/><path d="M16 0C7.165 0 0 7.242 0 16.173c0 8.93 7.165 16.172 16 16.172s16-7.242 16-16.172S24.835 0 16 0zm9.132 20.001c-.044.989-.2 1.664-.427 2.255a4.723 4.723 0 0 1-2.687 2.715c-.584.23-1.252.387-2.23.432-.98.045-1.293.056-3.788.056s-2.808-.01-3.788-.056c-.978-.045-1.646-.202-2.23-.431A4.496 4.496 0 0 1 8.355 23.9a4.557 4.557 0 0 1-1.06-1.644c-.227-.59-.382-1.266-.427-2.254-.045-.99-.056-1.307-.056-3.83 0-2.521.011-2.838.056-3.828.044-.988.2-1.663.427-2.254a4.54 4.54 0 0 1 1.06-1.645 4.496 4.496 0 0 1 1.627-1.071c.584-.23 1.252-.386 2.23-.432.98-.045 1.293-.056 3.788-.056s2.808.011 3.788.057c.978.045 1.646.201 2.23.43a4.5 4.5 0 0 1 1.627 1.072 4.54 4.54 0 0 1 1.06 1.645c.227.59.383 1.266.427 2.254.045.99.055 1.307.055 3.829 0 2.522-.01 2.838-.055 3.828z" fill="url(#paint2_linear)"/></g><defs><linearGradient id="paint0_linear" x1="16.861" y1="13.077" x2="14.66" y2="19.202" gradientUnits="userSpaceOnUse"><stop stop-color="#8F74CD"/><stop offset=".156" stop-color="#991590"/><stop offset=".328" stop-color="#CB1F6B"/><stop offset=".505" stop-color="#D21C32"/><stop offset=".755" stop-color="#E4662E"/><stop offset="1" stop-color="#F2C86E"/></linearGradient><linearGradient id="paint1_linear" x1="18.118" y1="8.559" x2="12.705" y2="23.623" gradientUnits="userSpaceOnUse"><stop stop-color="#8F74CD"/><stop offset=".156" stop-color="#991590"/><stop offset=".328" stop-color="#CB1F6B"/><stop offset=".505" stop-color="#D21C32"/><stop offset=".755" stop-color="#E4662E"/><stop offset="1" stop-color="#F2C86E"/></linearGradient><linearGradient id="paint2_linear" x1="20.5" x2="9" y2="32" gradientUnits="userSpaceOnUse"><stop stop-color="#8F74CD"/><stop offset=".156" stop-color="#991590"/><stop offset=".328" stop-color="#CB1F6B"/><stop offset=".505" stop-color="#D21C32"/><stop offset=".755" stop-color="#E4662E"/><stop offset="1" stop-color="#F2C86E"/></linearGradient><clipPath id="clip0"><path fill="#fff" d="M0 0h32v32.344H0z"/></clipPath></defs></svg>