<svg width="18" height="18" fill="none" xmlns="http://www.w3.org/2000/svg"><path d="M2.31 0h13.38C16.96 0 18 .94 18 2.31v13.38c0 1.37-1.04 2.31-2.31 2.31H2.31C1.04 18 0 17.06 0 15.69V2.31C0 .94 1.04 0 2.31 0zm10.802 2a.812.812 0 0 0-.81.81v1.94c0 .446.364.81.81.81h2.035c.445 0 .81-.364.81-.81V2.81a.813.813 0 0 0-.81-.81h-2.035zm2.854 5.612H14.38c.15.49.231 1.008.231 1.544 0 2.994-2.505 5.421-5.595 5.421s-5.595-2.427-5.595-5.42c0-.537.081-1.056.231-1.545H2v7.604c0 .393.322.715.716.715H15.25a.718.718 0 0 0 .716-.715V7.612zm-6.95-2.154c-1.995 0-3.614 1.568-3.614 3.503 0 1.934 1.619 3.503 3.615 3.503 1.997 0 3.615-1.569 3.615-3.503 0-1.935-1.618-3.503-3.615-3.503z" fill="#363636"/></svg>