<svg width="12" height="11" fill="none" xmlns="http://www.w3.org/2000/svg"><path d="M2.25 1.75A1.14 1.14 0 0 0 1.125.625C.492.625 0 1.141 0 1.75a1.11 1.11 0 0 0 1.125 1.125c.61 0 1.125-.492 1.125-1.125zM1.125 4.375C.492 4.375 0 4.891 0 5.5a1.11 1.11 0 0 0 1.125 1.125c.61 0 1.125-.492 1.125-1.125a1.14 1.14 0 0 0-1.125-1.125zm0 3.75C.492 8.125 0 8.641 0 9.25a1.11 1.11 0 0 0 1.125 1.125c.61 0 1.125-.492 1.125-1.125a1.14 1.14 0 0 0-1.125-1.125zm2.25-5.531h8.25A.385.385 0 0 0 12 2.219V1.28a.403.403 0 0 0-.375-.375h-8.25A.385.385 0 0 0 3 1.281v.938c0 .21.164.375.375.375zm0 3.75h8.25A.385.385 0 0 0 12 5.969V5.03a.403.403 0 0 0-.375-.375h-8.25A.385.385 0 0 0 3 5.031v.938c0 .21.164.375.375.375zm0 3.75h8.25A.385.385 0 0 0 12 9.719V8.78a.403.403 0 0 0-.375-.375h-8.25A.385.385 0 0 0 3 8.781v.938c0 .21.164.375.375.375z" fill="#fff"/></svg>