<svg xmlns="http://www.w3.org/2000/svg" viewBox="0 0 1480.3 349.8"><style>.mlst0,.mlst1,.mlst2,.mlst3{fill:#000}</style><g id="g10" transform="matrix(1.33333 0 0 -1.33333 0 349.747)"><g id="g12" transform="scale(.1)"><path id="path14" class="mlst0" d="M259.3 401c189 0 259.3 95.7 259.3 220.5 0 146.6-95.7 214.5-229 214.5H27.9V401h231.4zM0 863.9h282.3c190.2 0 265.4-104.2 265.4-242.3 0-174.5-118.8-248.4-287.2-248.4H27.9V3.6H0v860.3"/><path id="path16" class="mlst0" d="M1579.8 401c190.3 0 259.3 95.7 259.3 220.5 0 146.6-93.3 214.5-236.2 214.5h-255.7V401h232.6zm-260.5 462.9h282.3c186.6 0 266.6-104.2 266.6-242.3 0-163.6-104.2-237.5-258.1-247.2L1876.6 3.6h-33.9l-266.6 369.6h-229V3.6h-27.9v860.3"/><path id="path18" class="mlst0" d="M3464.8 435c0 243.5-176.9 405.9-391.4 405.9-219.3 0-396.2-162.4-396.2-405.9 0-244.8 176.9-407.1 396.2-407.1 214.5-.1 391.4 162.3 391.4 407.1zm-816.6 0c0 260.5 190.2 433.8 425.3 433.8 230.2 0 420.4-173.3 420.4-433.8 0-261.7-190.2-435-420.4-435-235.1 0-425.3 173.2-425.3 435"/><path id="path20" class="mlst0" d="M4265.4 432.5c0 259.3 173.3 436.2 420.4 436.2 111.5 0 219.3-29.1 312.6-120l-19.4-19.4c-87.2 83.6-185.4 111.5-293.2 111.5-231.4 0-391.3-164.8-391.3-408.3 0-239.9 159.9-404.7 391.3-404.7 121.2 0 226.6 32.7 302.9 98.2v262.9h-326v27.8h353.8V112.6C4933 37.5 4817.9 0 4685.8 0c-247.1 0-420.4 176.9-420.4 432.5"/><path id="path22" class="mlst0" d="M6048.7 401c190.3 0 259.3 95.7 259.3 220.5 0 146.6-93.3 214.5-236.2 214.5h-255.6V401h232.5zm-260.5 462.9h282.3c186.6 0 266.6-104.2 266.6-242.3 0-163.6-104.2-237.5-258.1-247.2L6345.5 3.6h-33.9L6045 373.2h-229V3.6h-27.9v860.3"/><path id="path24" class="mlst0" d="M7680.5 287.1L7469.7 830h-2.4l-209.6-542.8h422.8zm-230.2 576.8h35.2L7822.3 3.6H7792l-100.6 255.7h-444.7L7147.4 3.6h-30.3l333.2 860.3"/><path id="path26" class="mlst0" d="M8593.8 863.9h29.1l379.3-636.1h2.4l378.1 636.1h27.9V3.6h-27.9v805.8h-1.2l-365.9-617.9h-25.4L8623 809.4h-1.2V3.6h-27.9v860.3"/><path id="path28" class="mlst0" d="M10182 129.6l21.8 21.8c61.8-83.6 167.2-123.6 270.2-123.6 126 0 238.7 63 238.7 186.6 0 132.1-116.3 162.4-243.5 214.5-120 48.5-249.6 98.1-249.6 237.5 0 116.3 99.3 202.4 244.7 202.4 83.6 0 176.9-32.7 246-89.7l-19.4-23c-66.6 54.5-151.5 84.8-225.4 84.8-107.8 0-216.8-59.4-216.8-174.5 0-121.2 115.1-166 228.9-210.8 137-54.5 264.2-90.9 264.2-241.1 0-121.1-98.2-214.4-270.2-214.4-104.2-.1-213.3 38.6-289.6 129.5"/><path id="path30" class="mlst1" d="M7262.5 2615.2h261.6V1313.7h711.3v-233.5h-972.9v1535"/><path id="path32" class="mlst1" d="M8329.5 2615.2H8591v-1535h-261.5v1535"/><path id="path34" class="mlst1" d="M8685.1 2615.2h1003.1v-233.5h-741.5v-458.3h476.5v-235.6h-476.5v-607.5h-261.6v1534.9"/><path id="path36" class="mlst1" d="M9782.3 2615.2h966.3v-233.5h-704.7v-423.8h568.5v-233.5h-568.5v-410.8h701.4v-233.5h-963v1535.1"/><path id="path38" class="mlst2" d="M0 1259.7L147 1450c56.2-67 153.5-136.2 248.6-136.2 121 0 207.5 75.7 207.5 294v1007.4h261.6V1605.6c0-337.3-125.4-538.3-458.3-538.3-144.8 0-307 62.6-406.4 192.4"/><path id="path40" class="mlst2" d="M2891.1 1759.1l-512.4 856.1H2677l343.7-594.5h4.3l341.6 594.5h302.7l-516.7-856.1v-678.8H2891v678.8"/><path id="path42" class="mlst2" d="M3763.4 2615.2h1003.1v-233.5H4025v-458.3h622.6v-235.6H4025v-607.5h-261.6v1534.9"/><path id="path44" class="mlst2" d="M4860.6 1711.5v903.7H5120V1731c0-244.3 129.8-421.6 350.2-421.6 205.4 0 352.4 157.8 352.4 421.6v884.2h261.6v-903.7c0-397.8-231.3-648.6-614-648.6-363.1 0-609.6 235.7-609.6 648.6"/><path id="path46" class="mlst2" d="M6178.3 2615.2h261.6V1313.7h711.3v-233.5h-972.9v1535"/><path id="path48" class="mlst0" d="M10871.1 2605.8h-49.8v7.4h107.9v-7.4h-50.5v-147.1h-7.6v147.1"/><path id="path50" class="mlst0" d="M10954.1 2613.2h7.9l65.9-111.5h.5l65.7 111.5h7.8v-154.5h-7.8V2598h-.2l-62.7-106h-6.3l-62.7 106h-.2v-139.3h-7.9v154.5"/><path id="path52" class="mlst3" d="M1767.4 2261.3c59.3-35.1-22.2-89.3-77.1-75.2 6.1 44.1 59.6 42.1 77.1 75.2"/><path id="path54" class="mlst3" d="M1056.2 1470.5c-14.2 24.1-23.5 51-27.9 78.7-33.9 210.2-28.7 343.2 89.2 635.4 125.3 310.3 401.1 523.8 910.6 405.4 79.4-18.5 155-65.8 211.4-109.6 56.4-43.8 126.8-144.8 173.8-205.9 47-61.1 120.6-168.3 136.2-235.6 19.7-84.7 36.4-242.8-20.1-388-118-304.8-156.7-481.5-511.5-555.4-131.3-24.1-218.6-6.4-308.4 0h-19.3c31.9 62.9 74.2 135.3 106.1 198.1 113-13 212.8-59.6 351.9-81.9 15.1-2.4 30.7 1.3 42.9 10.5 20.2 15.2 37.6 39.4 51.2 66 4.5 8.9 2.4 19.5-5.1 26.1-83.2 73.9-263.4 77.9-375.2 124.1 26.7 178.8 12.3 300.3 1.6 484.5 70.4 12.8 140.2 26.2 231.3 18.8h209.4c13.6 0 26 8.8 29.8 21.9 26 90 5.6 133-119.8 120.6-58.6-11.8-219.9-7.8-292.9-10.9h-77.1c62.7 59.4 65.2 164.9 19.3 244.5 18.4 35-24.2 56.9 7.8 60.9 50.9 6.3 41.7-280.7 207.3-209.8 57.8 31.7 95.9 114.8 4.8 163.4 0 0 41-52.9-12-95.2-51.8-40-67.5 128.5-90 197.6-54.6 89.9-139.3 48.8-139.3 48.8s-130.9-27.2-36.4-128c-133.3 75.2-309.8-233.5-128.5-289.9-107.6-61.8-355-29.3-455.5-98-25.1-17.2-13.8-42.4-12.1-74.5.9-16.6 13.1-31.1 29.6-33.2 98-12.1 240.1 42.8 354.5 44.3-31.8-181.8-158.1-271.5-285.4-360.1-15-10.5-24-28.2-22.1-46.5 16.3-155.4 210.3-139.3 359.6-164.9-40.1-73.7-62.5-152-129.2-199.6-63.4-11.1-259.2 112.3-297.9 137.2-4.7 3-8.8 6.3-12.8 10.2-21 20.5-93 93.6-149.8 190"/><path id="path56" class="mlst3" d="M1748.1 1922.8c.5-163.5 10.6-336.3-38.6-451.4-89.9-12.4-151.2 25.4-220 33.4 104.1 111.6 202.2 260 258.6 418"/></g></g></svg>