<svg width="60" height="60" fill="none" xmlns="http://www.w3.org/2000/svg"><path d="M30 0C13.459 0 0 13.459 0 30s13.459 30 30 30 30-13.459 30-30S46.541 0 30 0zm16.767 22.105L27.594 41.128c-1.128 1.128-2.932 1.203-4.135.075l-10.15-9.248c-1.204-1.128-1.279-3.008-.226-4.21a2.975 2.975 0 0 1 4.21-.151l8.045 7.368L42.481 17.82a2.996 2.996 0 0 1 4.286 0 2.996 2.996 0 0 1 0 4.286z" fill="#000"/><path d="M30 0C13.459 0 0 13.459 0 30s13.459 30 30 30 30-13.459 30-30S46.541 0 30 0zm16.767 22.105L27.594 41.128c-1.128 1.128-2.932 1.203-4.135.075l-10.15-9.248c-1.204-1.128-1.279-3.008-.226-4.21a2.975 2.975 0 0 1 4.21-.151l8.045 7.368L42.481 17.82a2.996 2.996 0 0 1 4.286 0 2.996 2.996 0 0 1 0 4.286z" fill="url(#paint0_linear)"/><defs><linearGradient id="paint0_linear" x1="12.162" y1="12.128" x2="49.711" y2="54.974" gradientUnits="userSpaceOnUse"><stop stop-color="#6ECD9C"/><stop offset="1" stop-color="#8CCDF7"/></linearGradient></defs></svg>