<svg width="14" height="9" fill="none" xmlns="http://www.w3.org/2000/svg"><path d="M13.188 0H2.312a.555.555 0 0 0-.562.563V.75H.812a.555.555 0 0 0-.562.563v6.375A1.31 1.31 0 0 0 1.563 9h11.062c.61 0 1.125-.492 1.125-1.125V.562A.57.57 0 0 0 13.187 0zM1.562 7.875c-.117 0-.187-.07-.187-.188V1.875h.375v5.813a.185.185 0 0 1-.188.187zM7.095 7.5H3.53a.27.27 0 0 1-.281-.281V7.03c0-.14.117-.281.281-.281h3.563c.14 0 .281.14.281.281v.188c0 .164-.14.281-.281.281zm4.875 0H8.406a.27.27 0 0 1-.281-.281V7.03c0-.14.117-.281.281-.281h3.563c.14 0 .281.14.281.281v.188c0 .164-.14.281-.281.281zM7.094 5.25H3.53a.27.27 0 0 1-.281-.281V4.78c0-.14.117-.281.281-.281h3.563c.14 0 .281.14.281.281v.188c0 .164-.14.281-.281.281zm4.875 0H8.406a.27.27 0 0 1-.281-.281V4.78c0-.14.117-.281.281-.281h3.563c.14 0 .281.14.281.281v.188c0 .164-.14.281-.281.281zm0-2.25H3.53a.27.27 0 0 1-.281-.281V1.78c0-.14.117-.281.281-.281h8.438c.14 0 .281.14.281.281v.938c0 .164-.14.281-.281.281z" fill="#fff"/></svg>