<svg width="103" height="96" fill="none" xmlns="http://www.w3.org/2000/svg"><path d="M8.722 93.421a2.575 2.575 0 0 0 2.501 2.429 2.579 2.579 0 0 0 2.633-2.284l.124-2.226c.045-2.763.307-5.519.784-8.242l.804-5.357 2.227-8.716.722-2.06 2.371-6.45.392-.823 3.444-7.15 3.773-6.181a95.633 95.633 0 0 1 19.157-21.223A91.181 91.181 0 0 1 72.522 10.94l5.156-1.875c.206 0 .556-.144.886-.226l7.713-2.06 2.392-.392a78.417 78.417 0 0 1 11.774-1.278A2.578 2.578 0 0 0 103 2.535 2.56 2.56 0 0 0 100.402 0a83.082 83.082 0 0 0-12.538 1.34l-2.495.412a1.053 1.053 0 0 0-.268 0l-7.794 2.06a28.59 28.59 0 0 0-1.258.35l-5.465 2.02a95.887 95.887 0 0 0-26.312 15.04 100.393 100.393 0 0 0-20.25 22.44l-3.876 6.387-.124.226-3.505 7.253-.557 1.195-2.392 6.532-.722 2.431-2.289 9.004v.248l-.825 5.357a58.842 58.842 0 0 0-.845 8.901l-.103 2.06-.062.165z" fill="#fff"/><path d="M0 76.052c.001.325.064.647.185.948a229.384 229.384 0 0 0 3.98 9.21c1.382 3.03 2.928 5.296 4.413 7.748l.495.803a2.577 2.577 0 0 0 2.062 1.237 2.6 2.6 0 0 0 2.186-1.03l.64-.845c1.649-2.184 3.216-4.224 4.907-6.182 1.69-1.957 4.124-4.12 6.186-6.181a2.574 2.574 0 0 0-1.71-4.365 2.58 2.58 0 0 0-1.816.615c-2.165 2.06-4.29 4.12-6.372 6.325-1.278 1.422-2.433 2.864-3.588 4.348-.948-1.607-1.876-3.214-2.701-4.883a176.859 176.859 0 0 1-3.836-8.88 2.576 2.576 0 0 0-4.384-.675 2.574 2.574 0 0 0-.585 1.642L0 76.053z" fill="#fff"/></svg>