<svg width="46" height="39" fill="none" xmlns="http://www.w3.org/2000/svg"><path d="M20.274 13.877a2.768 2.768 0 0 0-3.54 1.67l-1.656 4.617-.166-2.844 5.236-14.546a2.07 2.07 0 0 0-3.797-1.636L9.008 15.674c-.157.314-.25.678-.25 1.054l.04 10.937-6.749 3.543a3.827 3.827 0 1 0 3.558 6.777l12.472-6.55.286-.15a3.167 3.167 0 0 0 1.637-2.265l2.066-12.071a2.769 2.769 0 0 0-1.794-3.072zM43.95 31.208l-6.747-3.543.038-10.938c0-.375-.092-.74-.25-1.054L29.65 1.138a2.07 2.07 0 0 0-3.797 1.635l5.236 14.546-.166 2.845-1.656-4.617a2.768 2.768 0 0 0-5.334 1.401l2.066 12.071a3.167 3.167 0 0 0 1.637 2.266l.286.15 12.472 6.55a3.827 3.827 0 1 0 3.558-6.777z" fill="#222"/></svg>