<svg width="30" height="26" fill="none" xmlns="http://www.w3.org/2000/svg"><path d="M9.602 11.827a7.95 7.95 0 0 0-2.197-.32c-1.11 0-2.036.253-2.754.564.692-2.535 2.355-6.908 5.668-7.4a.787.787 0 0 0 .642-.567l.724-2.59a.787.787 0 0 0-.65-.99 5.5 5.5 0 0 0-.741-.051c-3.977 0-7.915 4.15-9.577 10.094-.975 3.487-1.261 8.729 1.141 12.028 1.345 1.847 3.307 2.832 5.831 2.931h.031a7 7 0 0 0 6.717-5.1 6.934 6.934 0 0 0-.64-5.303 6.997 6.997 0 0 0-4.195-3.296zM29.1 15.123a6.996 6.996 0 0 0-4.197-3.296 7.95 7.95 0 0 0-2.196-.32c-1.11 0-2.036.253-2.755.564.693-2.535 2.356-6.908 5.67-7.4a.788.788 0 0 0 .641-.567l.724-2.59a.787.787 0 0 0-.65-.99 5.493 5.493 0 0 0-.741-.051c-3.977 0-7.915 4.15-9.577 10.094-.976 3.487-1.262 8.729 1.142 12.029 1.344 1.846 3.306 2.832 5.83 2.93h.031a7 7 0 0 0 6.717-5.1 6.937 6.937 0 0 0-.64-5.303z" fill="#000"/></svg>