<svg width="13" height="13" fill="none" xmlns="http://www.w3.org/2000/svg"><path d="M5.406 8.61l.657-.633a.442.442 0 0 0 .187.046c.398 0 .75-.351.75-.75a.755.755 0 0 0-.75-.75.74.74 0 0 0-.75.75c0 .047 0 .118.023.165l-.632.656-2.743-2.742c-.164-.165-.468-.141-.586.07C.579 7.25.86 9.57 2.406 11.094c1.524 1.547 3.844 1.828 5.672.844.211-.118.235-.422.07-.586L5.406 8.609zM5.898.5C5.664.5 5.5.664 5.5.875v.75c0 .21.14.375.352.375 3.023.164 5.46 2.625 5.625 5.648a.38.38 0 0 0 .375.352h.75c.234 0 .398-.164.375-.398C12.789 3.782 9.719.71 5.898.5zm0 2.25a.395.395 0 0 0-.398.398v.75c0 .188.14.352.328.375 1.805.141 3.234 1.594 3.399 3.399A.379.379 0 0 0 9.602 8h.75a.363.363 0 0 0 .375-.398c-.188-2.579-2.25-4.641-4.829-4.852z" fill="#fff"/></svg>