<svg width="38" height="36" fill="none" xmlns="http://www.w3.org/2000/svg"><path d="M19.087 0C9.096 0 .967 8.075.967 18s8.129 18 18.12 18c9.991 0 18.12-8.075 18.12-18S29.079 0 19.088 0zM8.894 13.5c0-1.86 1.525-3.375 3.398-3.375 1.873 0 3.398 1.514 3.398 3.375 0 1.86-1.525 3.375-3.398 3.375-1.873 0-3.398-1.514-3.398-3.375zm18.2 12.454a11.289 11.289 0 0 1-8.007 3.296 11.298 11.298 0 0 1-8.01-3.296 1.12 1.12 0 0 1 0-1.591 1.139 1.139 0 0 1 1.602 0c3.423 3.402 9.389 3.402 12.814 0a1.139 1.139 0 0 1 1.601 0 1.12 1.12 0 0 1 0 1.59zm-1.212-9.079c-1.873 0-3.397-1.514-3.397-3.375 0-1.86 1.524-3.375 3.397-3.375 1.874 0 3.398 1.514 3.398 3.375 0 1.86-1.524 3.375-3.398 3.375z" fill="#222"/></svg>