<svg width="32" height="33" fill="none" xmlns="http://www.w3.org/2000/svg"><g clip-path="url(#clip0)"><circle cx="16" cy="16.546" r="16" fill="#D9DEE5"/><path d="M24.469 16.171a8.233 8.233 0 0 0-8.235-8.234A8.233 8.233 0 0 0 8 16.171a8.196 8.196 0 0 0 5.213 7.67c-.066-.63-.133-1.627.033-2.357.166-.631.963-4.084.963-4.084s-.232-.498-.232-1.229c0-1.128.664-1.992 1.494-1.992.697 0 1.029.531 1.029 1.162 0 .698-.465 1.76-.697 2.756-.166.797.431 1.461 1.228 1.461 1.461 0 2.59-1.527 2.59-3.752 0-1.992-1.428-3.353-3.42-3.353-2.357 0-3.719 1.76-3.719 3.552 0 .73.266 1.495.598 1.893.066.066.066.166.066.232-.066.266-.232.83-.232.93-.033.166-.133.2-.299.133-1.03-.498-1.66-1.992-1.66-3.22 0-2.59 1.893-4.981 5.445-4.981 2.856 0 5.08 2.058 5.08 4.78 0 2.823-1.793 5.114-4.283 5.114-.83 0-1.627-.431-1.892-.963 0 0-.399 1.594-.498 1.96-.2.73-.698 1.626-1.03 2.158.764.265 1.594.365 2.457.365a8.233 8.233 0 0 0 8.235-8.235z" fill="#fff"/></g><defs><clipPath id="clip0"><path fill="#fff" transform="translate(0 .546)" d="M0 0h32v32.344H0z"/></clipPath></defs></svg>