<svg width="32" height="32" fill="none" xmlns="http://www.w3.org/2000/svg"><path fill-rule="evenodd" clip-rule="evenodd" d="M16 32c8.837 0 16-7.163 16-16S24.837 0 16 0 0 7.163 0 16s7.163 16 16 16zm.234-24.61a8.233 8.233 0 0 1 8.235 8.235 8.233 8.233 0 0 1-8.235 8.234c-.863 0-1.693-.1-2.457-.365.332-.531.83-1.428 1.03-2.158.1-.365.498-1.959.498-1.959.265.531 1.062.963 1.892.963 2.49 0 4.284-2.291 4.284-5.113 0-2.723-2.225-4.782-5.08-4.782-3.553 0-5.446 2.39-5.446 4.98 0 1.23.63 2.723 1.66 3.221.166.067.266.034.3-.132 0-.068.077-.354.147-.612.032-.12.064-.234.085-.318 0-.066 0-.166-.067-.232-.332-.399-.598-1.163-.598-1.893 0-1.793 1.362-3.553 3.72-3.553 1.991 0 3.42 1.362 3.42 3.354 0 2.224-1.13 3.752-2.59 3.752-.798 0-1.395-.664-1.23-1.461.088-.375.209-.76.325-1.13.192-.615.373-1.191.373-1.626 0-.63-.332-1.162-1.03-1.162-.83 0-1.493.863-1.493 1.992 0 .73.232 1.229.232 1.229s-.797 3.453-.963 4.084c-.166.73-.1 1.726-.033 2.357A8.196 8.196 0 0 1 8 15.625a8.233 8.233 0 0 1 8.234-8.234z" fill="#E70425"/></svg>