<svg width="32" height="33" fill="none" xmlns="http://www.w3.org/2000/svg"><g clip-path="url(#clip0)"><path d="M16 .546C7.165.546 0 7.788 0 16.718S7.165 32.89 16 32.89s16-7.242 16-16.172S24.835.546 16 .546zm7.305 12.61c.008.159.01.318.01.479 0 4.905-3.693 10.561-10.448 10.562a10.32 10.32 0 0 1-5.63-1.668c.288.034.58.051.877.051 1.72 0 3.304-.593 4.561-1.589a3.682 3.682 0 0 1-3.43-2.578 3.62 3.62 0 0 0 1.658-.064 3.702 3.702 0 0 1-2.946-3.638v-.047a3.62 3.62 0 0 0 1.663.464 3.719 3.719 0 0 1-1.634-3.09c0-.68.182-1.317.497-1.866a10.395 10.395 0 0 0 7.57 3.879 3.747 3.747 0 0 1-.095-.847c0-2.049 1.644-3.712 3.673-3.712a3.65 3.65 0 0 1 2.68 1.173 7.32 7.32 0 0 0 2.332-.9 3.72 3.72 0 0 1-1.615 2.053 7.267 7.267 0 0 0 2.11-.585 7.507 7.507 0 0 1-1.833 1.922z" fill="#D9DEE6"/></g><defs><clipPath id="clip0"><path fill="#fff" transform="translate(0 .546)" d="M0 0h32v32.344H0z"/></clipPath></defs></svg>