<svg width="32" height="33" fill="none" xmlns="http://www.w3.org/2000/svg"><g clip-path="url(#clip0)"><path d="M16 0C7.165 0 0 7.242 0 16.172s7.165 16.172 16 16.172 16-7.241 16-16.172C32 7.242 24.835 0 16 0zm7.305 12.61c.008.159.01.319.01.48 0 4.904-3.693 10.56-10.448 10.56-2.074 0-4.004-.614-5.63-1.667a7.319 7.319 0 0 0 5.437-1.538 3.682 3.682 0 0 1-3.43-2.578 3.62 3.62 0 0 0 1.659-.063c-1.68-.34-2.946-1.841-2.946-3.639v-.047a3.62 3.62 0 0 0 1.663.464 3.719 3.719 0 0 1-1.634-3.09c0-.68.182-1.317.497-1.866 1.811 2.246 4.518 3.724 7.57 3.879a3.747 3.747 0 0 1-.095-.847c0-2.049 1.644-3.711 3.673-3.711a3.65 3.65 0 0 1 2.68 1.173 7.319 7.319 0 0 0 2.332-.901 3.72 3.72 0 0 1-1.615 2.053 7.267 7.267 0 0 0 2.11-.585 7.507 7.507 0 0 1-1.833 1.922z" fill="#50ABF1"/></g><defs><clipPath id="clip0"><path fill="#fff" d="M0 0h32v32.344H0z"/></clipPath></defs></svg>