<svg width="32" height="33" fill="none" xmlns="http://www.w3.org/2000/svg"><g clip-path="url(#clip0)" fill="#D9DEE6"><path d="M14.007 19.748l5.205-3.03-5.205-3.03v6.06z"/><path d="M16 .546C7.165.546 0 7.788 0 16.718S7.165 32.89 16 32.89s16-7.242 16-16.172S24.835.546 16 .546zm9.998 16.189s0 3.28-.412 4.861a2.519 2.519 0 0 1-1.762 1.781c-1.565.417-7.824.417-7.824.417s-6.242 0-7.823-.433a2.52 2.52 0 0 1-1.763-1.782c-.412-1.564-.412-4.86-.412-4.86s0-3.28.412-4.862a2.57 2.57 0 0 1 1.763-1.798C9.74 9.643 16 9.643 16 9.643s6.259 0 7.823.433a2.52 2.52 0 0 1 1.763 1.781c.428 1.582.412 4.878.412 4.878z"/></g><defs><clipPath id="clip0"><path fill="#fff" transform="translate(0 .546)" d="M0 0h32v32.344H0z"/></clipPath></defs></svg>